<svg xmlns="http://www.w3.org/2000/svg" xmlns:xlink="http://www.w3.org/1999/xlink" width="100" zoomAndPan="magnify" viewBox="0 0 75 74.999997" height="100" preserveAspectRatio="xMidYMid meet" version="1.0"><defs><clipPath id="9a9bf9b6ff"><path d="M 2.691406 14.351562 L 48 14.351562 L 48 60.851562 L 2.691406 60.851562 Z M 2.691406 14.351562 " clip-rule="nonzero"/></clipPath><clipPath id="d7d5072cf4"><path d="M 17 28 L 72.441406 28 L 72.441406 47 L 17 47 Z M 17 28 " clip-rule="nonzero"/></clipPath></defs><g clip-path="url(#9a9bf9b6ff)"><path fill="#ff914d" d="M 7.460938 39.507812 C 7.386719 38.84375 7.347656 38.171875 7.347656 37.488281 C 7.347656 36.804688 7.390625 36.132812 7.460938 35.46875 L 2.710938 33.054688 C 3.074219 31.1875 3.660156 29.40625 4.441406 27.730469 L 4.441406 27.726562 L 9.707031 28.566406 C 10.375 27.386719 11.171875 26.292969 12.078125 25.296875 L 9.660156 20.554688 C 11.023438 19.28125 12.542969 18.175781 14.1875 17.261719 L 17.953125 21.03125 C 19.167969 20.480469 20.453125 20.050781 21.792969 19.777344 L 22.625 14.523438 C 23.542969 14.410156 24.476562 14.347656 25.421875 14.347656 C 26.371094 14.347656 27.304688 14.410156 28.222656 14.523438 L 29.050781 19.777344 C 30.394531 20.050781 31.679688 20.480469 32.894531 21.03125 L 36.660156 17.261719 C 38.304688 18.175781 39.824219 19.28125 41.1875 20.554688 L 38.765625 25.296875 C 39.675781 26.292969 40.472656 27.386719 41.140625 28.566406 L 46.40625 27.726562 C 46.902344 28.789062 47.316406 29.898438 47.648438 31.039062 L 36.257812 31.039062 C 34.058594 27.351562 30.03125 24.878906 25.421875 24.878906 C 18.457031 24.878906 12.8125 30.523438 12.8125 37.488281 C 12.8125 44.453125 18.457031 50.101562 25.421875 50.101562 C 30.03125 50.101562 34.058594 47.628906 36.257812 43.941406 L 47.648438 43.941406 C 47.316406 45.082031 46.902344 46.1875 46.40625 47.25 L 41.140625 46.414062 C 40.472656 47.589844 39.675781 48.6875 38.769531 49.679688 L 41.1875 54.425781 C 39.824219 55.695312 38.304688 56.804688 36.660156 57.71875 L 32.894531 53.949219 C 31.679688 54.5 30.394531 54.925781 29.050781 55.199219 L 28.222656 60.457031 C 27.304688 60.566406 26.371094 60.632812 25.421875 60.632812 C 24.476562 60.632812 23.542969 60.566406 22.625 60.457031 L 21.792969 55.199219 C 20.453125 54.925781 19.167969 54.5 17.953125 53.949219 L 14.1875 57.71875 C 12.542969 56.804688 11.023438 55.695312 9.660156 54.425781 L 12.078125 49.679688 C 11.171875 48.6875 10.375 47.589844 9.707031 46.414062 L 4.441406 47.25 C 3.660156 45.574219 3.074219 43.789062 2.710938 41.925781 L 7.460938 39.507812 " fill-opacity="1" fill-rule="nonzero"/></g><g clip-path="url(#d7d5072cf4)"><path fill="#ff914d" d="M 59.894531 37.175781 L 62.457031 32.738281 C 62.570312 32.542969 62.777344 32.425781 63 32.425781 L 72.292969 32.425781 C 70.652344 29.957031 67.847656 28.328125 64.660156 28.328125 C 61.28125 28.328125 58.335938 30.160156 56.75 32.882812 L 18.277344 32.882812 C 17.632812 32.882812 17.109375 33.40625 17.109375 34.050781 C 17.109375 34.699219 17.632812 35.222656 18.277344 35.222656 L 37.929688 35.222656 C 38.292969 35.222656 38.589844 35.515625 38.589844 35.878906 C 38.589844 36.246094 38.292969 36.539062 37.929688 36.539062 L 24.476562 36.539062 C 23.953125 36.539062 23.527344 36.964844 23.527344 37.488281 C 23.527344 38.015625 23.953125 38.441406 24.476562 38.441406 L 37.929688 38.441406 C 38.292969 38.441406 38.589844 38.734375 38.589844 39.097656 C 38.589844 39.460938 38.292969 39.757812 37.929688 39.757812 L 31.878906 39.757812 C 31.234375 39.757812 30.707031 40.28125 30.707031 40.925781 C 30.707031 41.574219 31.234375 42.097656 31.878906 42.097656 L 56.75 42.097656 C 58.335938 44.820312 61.28125 46.652344 64.660156 46.652344 C 67.847656 46.652344 70.652344 45.023438 72.292969 42.554688 L 63 42.554688 C 62.777344 42.554688 62.570312 42.433594 62.457031 42.242188 L 59.894531 37.804688 C 59.78125 37.609375 59.78125 37.371094 59.894531 37.175781 " fill-opacity="1" fill-rule="nonzero"/></g></svg>