<svg xmlns="http://www.w3.org/2000/svg" xmlns:xlink="http://www.w3.org/1999/xlink" width="120" zoomAndPan="magnify" viewBox="0 0 90 36.000001" height="48" preserveAspectRatio="xMidYMid meet" version="1.0"><defs><clipPath id="b9a44f05d4"><path d="M 1.214844 0 L 88.78125 0 L 88.78125 35.027344 L 1.214844 35.027344 Z M 1.214844 0 " clip-rule="nonzero"/></clipPath><clipPath id="f00105a75b"><path d="M 20.351562 0.953125 L 53 0.953125 L 53 33.789062 L 20.351562 33.789062 Z M 20.351562 0.953125 " clip-rule="nonzero"/></clipPath><clipPath id="53bc23d7b1"><path d="M 30 10 L 69.972656 10 L 69.972656 24 L 30 24 Z M 30 10 " clip-rule="nonzero"/></clipPath></defs><g clip-path="url(#b9a44f05d4)"><path fill="#ffffff" d="M 1.214844 0 L 88.785156 0 L 88.785156 35.027344 L 1.214844 35.027344 Z M 1.214844 0 " fill-opacity="1" fill-rule="nonzero"/><path fill="#ffffff" d="M 1.214844 0 L 88.785156 0 L 88.785156 35.027344 L 1.214844 35.027344 Z M 1.214844 0 " fill-opacity="1" fill-rule="nonzero"/></g><g clip-path="url(#f00105a75b)"><path fill="#ff914d" d="M 23.742188 18.824219 C 23.6875 18.351562 23.660156 17.875 23.660156 17.390625 C 23.660156 16.90625 23.6875 16.425781 23.742188 15.957031 L 20.367188 14.238281 C 20.621094 12.914062 21.039062 11.644531 21.59375 10.457031 L 25.335938 11.050781 C 25.808594 10.214844 26.375 9.433594 27.019531 8.730469 L 25.300781 5.359375 C 26.269531 4.457031 27.351562 3.667969 28.515625 3.019531 L 31.191406 5.699219 C 32.054688 5.304688 32.96875 5.003906 33.921875 4.808594 L 34.511719 1.074219 C 35.164062 0.996094 35.828125 0.949219 36.5 0.949219 C 37.171875 0.949219 37.835938 0.996094 38.488281 1.074219 L 39.078125 4.808594 C 40.03125 5.003906 40.945312 5.304688 41.808594 5.699219 L 44.484375 3.019531 C 45.648438 3.667969 46.730469 4.457031 47.699219 5.359375 L 45.980469 8.730469 C 46.625 9.433594 47.1875 10.214844 47.664062 11.050781 L 51.40625 10.457031 C 51.757812 11.210938 52.054688 11.996094 52.289062 12.808594 L 44.195312 12.808594 C 42.632812 10.1875 39.773438 8.433594 36.5 8.433594 C 31.550781 8.433594 27.542969 12.441406 27.542969 17.390625 C 27.542969 22.335938 31.550781 26.347656 36.5 26.347656 C 39.773438 26.347656 42.632812 24.59375 44.195312 21.972656 L 52.289062 21.972656 C 52.054688 22.785156 51.757812 23.570312 51.40625 24.324219 L 47.664062 23.730469 C 47.1875 24.566406 46.625 25.34375 45.980469 26.050781 L 47.699219 29.421875 C 46.730469 30.324219 45.648438 31.113281 44.484375 31.761719 L 41.808594 29.082031 C 40.945312 29.472656 40.03125 29.777344 39.078125 29.972656 L 38.488281 33.707031 C 37.835938 33.785156 37.171875 33.828125 36.5 33.828125 C 35.828125 33.828125 35.164062 33.785156 34.511719 33.707031 L 33.921875 29.972656 C 32.96875 29.777344 32.054688 29.472656 31.191406 29.082031 L 28.515625 31.761719 C 27.351562 31.113281 26.269531 30.324219 25.300781 29.421875 L 27.019531 26.050781 C 26.375 25.34375 25.808594 24.566406 25.335938 23.730469 L 21.59375 24.324219 C 21.039062 23.132812 20.621094 21.867188 20.367188 20.542969 L 23.742188 18.824219 " fill-opacity="1" fill-rule="nonzero"/></g><g clip-path="url(#53bc23d7b1)"><path fill="#ff914d" d="M 60.988281 17.167969 L 62.808594 14.015625 C 62.886719 13.875 63.035156 13.792969 63.195312 13.792969 L 69.796875 13.792969 C 68.628906 12.039062 66.636719 10.878906 64.375 10.878906 C 61.972656 10.878906 59.882812 12.183594 58.753906 14.117188 L 31.425781 14.117188 C 30.964844 14.117188 30.59375 14.488281 30.59375 14.949219 C 30.59375 15.40625 30.964844 15.78125 31.425781 15.78125 L 45.386719 15.78125 C 45.644531 15.78125 45.851562 15.988281 45.851562 16.246094 C 45.851562 16.503906 45.644531 16.714844 45.386719 16.714844 L 35.828125 16.714844 C 35.453125 16.714844 35.152344 17.015625 35.152344 17.390625 C 35.152344 17.761719 35.453125 18.066406 35.828125 18.066406 L 45.386719 18.066406 C 45.644531 18.066406 45.851562 18.273438 45.851562 18.53125 C 45.851562 18.792969 45.644531 19 45.386719 19 L 41.085938 19 C 40.625 19 40.253906 19.371094 40.253906 19.832031 C 40.253906 20.289062 40.625 20.664062 41.085938 20.664062 L 58.753906 20.664062 C 59.882812 22.597656 61.972656 23.898438 64.375 23.898438 C 66.636719 23.898438 68.628906 22.742188 69.796875 20.988281 L 63.195312 20.988281 C 63.035156 20.988281 62.886719 20.902344 62.808594 20.765625 L 60.988281 17.613281 C 60.90625 17.476562 60.90625 17.304688 60.988281 17.167969 " fill-opacity="1" fill-rule="nonzero"/></g></svg>