<svg xmlns="http://www.w3.org/2000/svg" xmlns:xlink="http://www.w3.org/1999/xlink" width="120" zoomAndPan="magnify" viewBox="0 0 90 36.000001" height="48" preserveAspectRatio="xMidYMid meet" version="1.0"><defs><g/><clipPath id="a6cd9e8d68"><path d="M 7.214844 2.363281 L 37 2.363281 L 37 33 L 7.214844 33 Z M 7.214844 2.363281 " clip-rule="nonzero"/></clipPath><clipPath id="cd9fb8f5a3"><path d="M 16 11 L 52.457031 11 L 52.457031 24 L 16 24 Z M 16 11 " clip-rule="nonzero"/></clipPath></defs><g clip-path="url(#a6cd9e8d68)"><path fill="#ff914d" d="M 10.339844 18.832031 C 10.289062 18.398438 10.261719 17.957031 10.261719 17.511719 C 10.261719 17.0625 10.289062 16.625 10.339844 16.1875 L 7.226562 14.605469 C 7.464844 13.386719 7.847656 12.21875 8.359375 11.121094 L 11.808594 11.667969 C 12.246094 10.898438 12.765625 10.179688 13.363281 9.527344 L 11.777344 6.421875 C 12.671875 5.589844 13.664062 4.863281 14.742188 4.265625 L 17.207031 6.734375 C 18.003906 6.375 18.84375 6.09375 19.722656 5.914062 L 20.265625 2.472656 C 20.867188 2.402344 21.476562 2.359375 22.097656 2.359375 C 22.71875 2.359375 23.332031 2.402344 23.929688 2.472656 C 23.929688 2.472656 23.933594 2.472656 23.933594 2.472656 L 24.472656 5.914062 C 25.351562 6.09375 26.195312 6.375 26.988281 6.734375 L 29.457031 4.265625 C 30.53125 4.863281 31.527344 5.589844 32.421875 6.421875 L 30.835938 9.527344 C 31.429688 10.179688 31.949219 10.898438 32.390625 11.667969 L 35.835938 11.121094 C 36.160156 11.816406 36.433594 12.539062 36.648438 13.285156 L 29.191406 13.285156 C 27.75 10.871094 25.113281 9.253906 22.097656 9.253906 C 17.539062 9.253906 13.84375 12.949219 13.84375 17.511719 C 13.84375 22.070312 17.539062 25.765625 22.097656 25.765625 C 25.113281 25.765625 27.75 24.148438 29.191406 21.734375 L 36.648438 21.734375 C 36.433594 22.480469 36.160156 23.207031 35.835938 23.902344 L 32.390625 23.351562 C 31.949219 24.125 31.429688 24.84375 30.835938 25.492188 L 32.421875 28.597656 C 31.527344 29.429688 30.53125 30.15625 29.457031 30.753906 L 26.988281 28.285156 C 26.195312 28.648438 25.351562 28.925781 24.472656 29.105469 L 23.933594 32.546875 C 23.933594 32.546875 23.929688 32.546875 23.929688 32.546875 C 23.332031 32.621094 22.71875 32.664062 22.097656 32.664062 C 21.476562 32.664062 20.867188 32.621094 20.265625 32.546875 L 19.722656 29.105469 C 18.84375 28.925781 18.003906 28.648438 17.207031 28.285156 L 14.742188 30.753906 C 13.664062 30.15625 12.671875 29.429688 11.777344 28.597656 L 13.363281 25.492188 C 12.765625 24.84375 12.246094 24.125 11.808594 23.351562 L 8.359375 23.902344 C 7.847656 22.804688 7.464844 21.636719 7.226562 20.414062 L 10.339844 18.832031 " fill-opacity="1" fill-rule="nonzero"/></g><g clip-path="url(#cd9fb8f5a3)"><path fill="#ff914d" d="M 44.667969 17.304688 L 46.34375 14.398438 C 46.417969 14.273438 46.554688 14.195312 46.699219 14.195312 L 52.785156 14.195312 C 51.710938 12.578125 49.875 11.511719 47.789062 11.511719 C 45.574219 11.511719 43.648438 12.710938 42.609375 14.496094 L 17.421875 14.496094 C 16.996094 14.496094 16.652344 14.835938 16.652344 15.261719 C 16.652344 15.683594 16.996094 16.027344 17.421875 16.027344 L 30.289062 16.027344 C 30.523438 16.027344 30.71875 16.21875 30.71875 16.457031 C 30.71875 16.695312 30.523438 16.886719 30.289062 16.886719 L 21.480469 16.886719 C 21.136719 16.886719 20.855469 17.167969 20.855469 17.511719 C 20.855469 17.855469 21.136719 18.132812 21.480469 18.132812 L 30.289062 18.132812 C 30.523438 18.132812 30.71875 18.328125 30.71875 18.5625 C 30.71875 18.800781 30.523438 18.996094 30.289062 18.996094 L 26.324219 18.996094 C 25.902344 18.996094 25.558594 19.339844 25.558594 19.761719 C 25.558594 20.183594 25.902344 20.527344 26.324219 20.527344 L 42.609375 20.527344 C 43.648438 22.308594 45.574219 23.511719 47.789062 23.511719 C 49.875 23.511719 51.710938 22.445312 52.785156 20.828125 L 46.699219 20.828125 C 46.554688 20.828125 46.417969 20.75 46.34375 20.621094 L 44.667969 17.714844 C 44.59375 17.589844 44.59375 17.433594 44.667969 17.304688 " fill-opacity="1" fill-rule="nonzero"/></g><g fill="#545454" fill-opacity="1"><g transform="translate(57.77922, 22.122837)"><g><path d="M 0.828125 -2.375 L 0.828125 -10.84375 C 0.828125 -11.625 1.03125 -12.210938 1.4375 -12.609375 C 1.84375 -13.015625 2.429688 -13.21875 3.203125 -13.21875 L 5.390625 -13.21875 C 6.160156 -13.21875 6.75 -13.015625 7.15625 -12.609375 C 7.5625 -12.210938 7.765625 -11.625 7.765625 -10.84375 L 7.765625 -9.125 C 7.765625 -8.945312 7.675781 -8.859375 7.5 -8.859375 L 5.859375 -8.859375 C 5.679688 -8.859375 5.59375 -8.945312 5.59375 -9.125 L 5.59375 -10.375 C 5.59375 -10.820312 5.367188 -11.046875 4.921875 -11.046875 L 3.734375 -11.046875 C 3.296875 -11.046875 3.078125 -10.820312 3.078125 -10.375 L 3.078125 -2.84375 C 3.078125 -2.40625 3.296875 -2.1875 3.734375 -2.1875 L 4.921875 -2.1875 C 5.367188 -2.1875 5.59375 -2.40625 5.59375 -2.84375 L 5.59375 -5.0625 L 4.734375 -5.0625 C 4.554688 -5.0625 4.46875 -5.148438 4.46875 -5.328125 L 4.46875 -6.96875 C 4.46875 -7.144531 4.554688 -7.234375 4.734375 -7.234375 L 7.5 -7.234375 C 7.675781 -7.234375 7.765625 -7.144531 7.765625 -6.96875 L 7.765625 -2.375 C 7.765625 -1.601562 7.5625 -1.015625 7.15625 -0.609375 C 6.75 -0.203125 6.160156 0 5.390625 0 L 3.203125 0 C 2.429688 0 1.84375 -0.203125 1.4375 -0.609375 C 1.03125 -1.015625 0.828125 -1.601562 0.828125 -2.375 Z M 0.828125 -2.375 "/></g></g></g><g fill="#545454" fill-opacity="1"><g transform="translate(67.647375, 22.122837)"><g><path d="M 0.765625 -13.21875 L 6.84375 -13.21875 C 7.019531 -13.21875 7.109375 -13.128906 7.109375 -12.953125 L 7.109375 -11.3125 C 7.109375 -11.132812 7.019531 -11.046875 6.84375 -11.046875 L 4.921875 -11.046875 L 4.921875 -0.265625 C 4.921875 -0.0859375 4.832031 0 4.65625 0 L 2.9375 0 C 2.757812 0 2.671875 -0.0859375 2.671875 -0.265625 L 2.671875 -11.046875 L 0.765625 -11.046875 C 0.585938 -11.046875 0.5 -11.132812 0.5 -11.3125 L 0.5 -12.953125 C 0.5 -13.128906 0.585938 -13.21875 0.765625 -13.21875 Z M 0.765625 -13.21875 "/></g></g></g><g fill="#545454" fill-opacity="1"><g transform="translate(76.523786, 22.122837)"><g><path d="M 3.203125 -13.21875 L 5.0625 -13.21875 C 5.84375 -13.21875 6.429688 -13.015625 6.828125 -12.609375 C 7.234375 -12.210938 7.4375 -11.625 7.4375 -10.84375 L 7.4375 -9.09375 C 7.4375 -8.914062 7.347656 -8.828125 7.171875 -8.828125 L 5.453125 -8.828125 C 5.273438 -8.828125 5.1875 -8.914062 5.1875 -9.09375 L 5.1875 -10.375 C 5.1875 -10.820312 4.96875 -11.046875 4.53125 -11.046875 L 3.734375 -11.046875 C 3.296875 -11.046875 3.078125 -10.820312 3.078125 -10.375 L 3.078125 -8.09375 L 7.015625 -6.8125 C 7.296875 -6.6875 7.4375 -6.484375 7.4375 -6.203125 L 7.4375 -2.375 C 7.4375 -1.601562 7.234375 -1.015625 6.828125 -0.609375 C 6.429688 -0.203125 5.84375 0 5.0625 0 L 3.203125 0 C 2.429688 0 1.84375 -0.203125 1.4375 -0.609375 C 1.03125 -1.015625 0.828125 -1.601562 0.828125 -2.375 L 0.828125 -4.109375 C 0.828125 -4.285156 0.914062 -4.375 1.09375 -4.375 L 2.8125 -4.375 C 2.988281 -4.375 3.078125 -4.285156 3.078125 -4.109375 L 3.078125 -2.84375 C 3.078125 -2.40625 3.296875 -2.1875 3.734375 -2.1875 L 4.53125 -2.1875 C 4.96875 -2.1875 5.1875 -2.40625 5.1875 -2.84375 L 5.1875 -5.046875 L 1.265625 -6.328125 C 0.972656 -6.429688 0.828125 -6.632812 0.828125 -6.9375 L 0.828125 -10.84375 C 0.828125 -11.625 1.03125 -12.210938 1.4375 -12.609375 C 1.84375 -13.015625 2.429688 -13.21875 3.203125 -13.21875 Z M 3.203125 -13.21875 "/></g></g></g><g fill="#545454" fill-opacity="1"><g transform="translate(61.212057, 27.070017)"><g><path d="M 1.171875 -0.34375 L 0.421875 -0.34375 L 0.28125 0 L -0.015625 0 L 0.65625 -1.484375 L 0.9375 -1.484375 L 1.609375 0 L 1.3125 0 Z M 1.078125 -0.5625 L 0.796875 -1.21875 L 0.515625 -0.5625 Z M 1.078125 -0.5625 "/></g></g></g><g fill="#545454" fill-opacity="1"><g transform="translate(63.617268, 27.070017)"><g><path d="M 0.84375 0.015625 C 0.632812 0.015625 0.472656 -0.0390625 0.359375 -0.15625 C 0.242188 -0.269531 0.1875 -0.429688 0.1875 -0.640625 L 0.1875 -1.484375 L 0.46875 -1.484375 L 0.46875 -0.65625 C 0.46875 -0.363281 0.59375 -0.21875 0.84375 -0.21875 C 1.09375 -0.21875 1.21875 -0.363281 1.21875 -0.65625 L 1.21875 -1.484375 L 1.484375 -1.484375 L 1.484375 -0.640625 C 1.484375 -0.429688 1.425781 -0.269531 1.3125 -0.15625 C 1.195312 -0.0390625 1.039062 0.015625 0.84375 0.015625 Z M 0.84375 0.015625 "/></g></g></g><g fill="#545454" fill-opacity="1"><g transform="translate(66.107449, 27.070017)"><g><path d="M 0.5 -1.25 L 0.015625 -1.25 L 0.015625 -1.484375 L 1.265625 -1.484375 L 1.265625 -1.25 L 0.78125 -1.25 L 0.78125 0 L 0.5 0 Z M 0.5 -1.25 "/></g></g></g><g fill="#545454" fill-opacity="1"><g transform="translate(68.200396, 27.070017)"><g><path d="M 0.890625 0.015625 C 0.742188 0.015625 0.609375 -0.015625 0.484375 -0.078125 C 0.359375 -0.140625 0.257812 -0.226562 0.1875 -0.34375 C 0.125 -0.46875 0.09375 -0.601562 0.09375 -0.75 C 0.09375 -0.882812 0.125 -1.007812 0.1875 -1.125 C 0.257812 -1.25 0.359375 -1.34375 0.484375 -1.40625 C 0.609375 -1.476562 0.742188 -1.515625 0.890625 -1.515625 C 1.046875 -1.515625 1.179688 -1.476562 1.296875 -1.40625 C 1.421875 -1.34375 1.519531 -1.253906 1.59375 -1.140625 C 1.664062 -1.023438 1.703125 -0.894531 1.703125 -0.75 C 1.703125 -0.601562 1.664062 -0.46875 1.59375 -0.34375 C 1.519531 -0.226562 1.421875 -0.140625 1.296875 -0.078125 C 1.179688 -0.015625 1.046875 0.015625 0.890625 0.015625 Z M 0.890625 -0.21875 C 0.992188 -0.21875 1.082031 -0.238281 1.15625 -0.28125 C 1.238281 -0.332031 1.300781 -0.394531 1.34375 -0.46875 C 1.394531 -0.550781 1.421875 -0.644531 1.421875 -0.75 C 1.421875 -0.84375 1.394531 -0.925781 1.34375 -1 C 1.300781 -1.082031 1.238281 -1.144531 1.15625 -1.1875 C 1.082031 -1.238281 0.992188 -1.265625 0.890625 -1.265625 C 0.796875 -1.265625 0.707031 -1.238281 0.625 -1.1875 C 0.550781 -1.144531 0.488281 -1.082031 0.4375 -1 C 0.394531 -0.925781 0.375 -0.84375 0.375 -0.75 C 0.375 -0.644531 0.394531 -0.550781 0.4375 -0.46875 C 0.488281 -0.394531 0.550781 -0.332031 0.625 -0.28125 C 0.707031 -0.238281 0.796875 -0.21875 0.890625 -0.21875 Z M 0.890625 -0.21875 "/></g></g></g><g fill="#545454" fill-opacity="1"><g transform="translate(70.803161, 27.070017)"><g><path d="M 0.8125 -1.484375 C 0.9375 -1.484375 1.046875 -1.460938 1.140625 -1.421875 C 1.242188 -1.378906 1.316406 -1.316406 1.359375 -1.234375 C 1.410156 -1.160156 1.4375 -1.066406 1.4375 -0.953125 C 1.4375 -0.847656 1.410156 -0.753906 1.359375 -0.671875 C 1.316406 -0.597656 1.242188 -0.535156 1.140625 -0.484375 C 1.046875 -0.441406 0.9375 -0.421875 0.8125 -0.421875 L 0.46875 -0.421875 L 0.46875 0 L 0.203125 0 L 0.203125 -1.484375 Z M 0.796875 -0.65625 C 0.921875 -0.65625 1.015625 -0.679688 1.078125 -0.734375 C 1.140625 -0.785156 1.171875 -0.859375 1.171875 -0.953125 C 1.171875 -1.046875 1.140625 -1.117188 1.078125 -1.171875 C 1.015625 -1.222656 0.921875 -1.25 0.796875 -1.25 L 0.46875 -1.25 L 0.46875 -0.65625 Z M 0.796875 -0.65625 "/></g></g></g><g fill="#545454" fill-opacity="1"><g transform="translate(73.159513, 27.070017)"><g><path d="M 1.171875 -0.34375 L 0.421875 -0.34375 L 0.28125 0 L -0.015625 0 L 0.65625 -1.484375 L 0.9375 -1.484375 L 1.609375 0 L 1.3125 0 Z M 1.078125 -0.5625 L 0.796875 -1.21875 L 0.515625 -0.5625 Z M 1.078125 -0.5625 "/></g></g></g><g fill="#545454" fill-opacity="1"><g transform="translate(75.564724, 27.070017)"><g><path d="M 1.171875 0 L 0.875 -0.4375 C 0.851562 -0.4375 0.832031 -0.4375 0.8125 -0.4375 L 0.46875 -0.4375 L 0.46875 0 L 0.203125 0 L 0.203125 -1.484375 L 0.8125 -1.484375 C 0.9375 -1.484375 1.046875 -1.460938 1.140625 -1.421875 C 1.242188 -1.378906 1.316406 -1.316406 1.359375 -1.234375 C 1.410156 -1.160156 1.4375 -1.066406 1.4375 -0.953125 C 1.4375 -0.847656 1.410156 -0.753906 1.359375 -0.671875 C 1.304688 -0.585938 1.226562 -0.523438 1.125 -0.484375 L 1.46875 0 Z M 1.171875 -0.953125 C 1.171875 -1.046875 1.140625 -1.117188 1.078125 -1.171875 C 1.015625 -1.222656 0.921875 -1.25 0.796875 -1.25 L 0.46875 -1.25 L 0.46875 -0.65625 L 0.796875 -0.65625 C 0.921875 -0.65625 1.015625 -0.679688 1.078125 -0.734375 C 1.140625 -0.785156 1.171875 -0.859375 1.171875 -0.953125 Z M 1.171875 -0.953125 "/></g></g></g><g fill="#545454" fill-opacity="1"><g transform="translate(77.931699, 27.070017)"><g><path d="M 0.5 -1.25 L 0.015625 -1.25 L 0.015625 -1.484375 L 1.265625 -1.484375 L 1.265625 -1.25 L 0.78125 -1.25 L 0.78125 0 L 0.5 0 Z M 0.5 -1.25 "/></g></g></g><g fill="#545454" fill-opacity="1"><g transform="translate(80.024646, 27.070017)"><g><path d="M 0.65625 0.015625 C 0.539062 0.015625 0.429688 0 0.328125 -0.03125 C 0.222656 -0.0625 0.140625 -0.101562 0.078125 -0.15625 L 0.171875 -0.375 C 0.234375 -0.320312 0.304688 -0.28125 0.390625 -0.25 C 0.484375 -0.21875 0.570312 -0.203125 0.65625 -0.203125 C 0.769531 -0.203125 0.851562 -0.21875 0.90625 -0.25 C 0.957031 -0.289062 0.984375 -0.34375 0.984375 -0.40625 C 0.984375 -0.445312 0.96875 -0.476562 0.9375 -0.5 C 0.914062 -0.53125 0.878906 -0.550781 0.828125 -0.5625 C 0.785156 -0.582031 0.722656 -0.601562 0.640625 -0.625 C 0.523438 -0.65625 0.429688 -0.679688 0.359375 -0.703125 C 0.285156 -0.734375 0.222656 -0.773438 0.171875 -0.828125 C 0.128906 -0.890625 0.109375 -0.96875 0.109375 -1.0625 C 0.109375 -1.144531 0.128906 -1.21875 0.171875 -1.28125 C 0.210938 -1.351562 0.28125 -1.410156 0.375 -1.453125 C 0.46875 -1.492188 0.578125 -1.515625 0.703125 -1.515625 C 0.796875 -1.515625 0.882812 -1.5 0.96875 -1.46875 C 1.0625 -1.445312 1.140625 -1.414062 1.203125 -1.375 L 1.109375 -1.15625 C 1.046875 -1.195312 0.976562 -1.226562 0.90625 -1.25 C 0.832031 -1.269531 0.765625 -1.28125 0.703125 -1.28125 C 0.597656 -1.28125 0.515625 -1.257812 0.453125 -1.21875 C 0.398438 -1.1875 0.375 -1.140625 0.375 -1.078125 C 0.375 -1.035156 0.390625 -1 0.421875 -0.96875 C 0.453125 -0.945312 0.488281 -0.925781 0.53125 -0.90625 C 0.582031 -0.894531 0.648438 -0.878906 0.734375 -0.859375 C 0.847656 -0.828125 0.9375 -0.796875 1 -0.765625 C 1.070312 -0.742188 1.132812 -0.703125 1.1875 -0.640625 C 1.238281 -0.585938 1.265625 -0.515625 1.265625 -0.421875 C 1.265625 -0.335938 1.238281 -0.257812 1.1875 -0.1875 C 1.144531 -0.125 1.078125 -0.0703125 0.984375 -0.03125 C 0.898438 0 0.789062 0.015625 0.65625 0.015625 Z M 0.65625 0.015625 "/></g></g></g></svg>